<svg version="1.1" id="Layer_1" xmlns="http://www.w3.org/2000/svg" xmlns:xlink="http://www.w3.org/1999/xlink" x="0px" y="0px"
	 width="100%" viewBox="0 0 1024 1024" enable-background="new 0 0 1024 1024" xml:space="preserve">
<rect x="0" y="0" width="1024" height="1024" fill="#FFFFFF"/>
<path fill="#000000" opacity="1.000000" stroke="none" 
	d="
M1.000000,867.468628 
	C11.820919,867.267090 22.641920,867.766174 33.462742,867.762390 
	C91.256401,867.742065 148.115631,860.802551 203.462128,843.673889 
	C276.716400,821.002991 339.567749,781.866455 391.018738,724.681274 
	C436.584595,674.037231 464.412231,614.466431 480.706940,548.910217 
	C490.703705,508.691650 498.688873,467.964081 510.794800,428.280090 
	C528.023804,371.802368 552.942993,319.265259 591.223999,273.743927 
	C620.721558,238.667282 656.069641,210.613937 695.573669,187.643066 
	C738.351746,162.768341 784.590088,147.205307 832.733215,136.767548 
	C864.714355,129.833786 897.112061,126.454468 929.747253,124.629822 
	C961.224670,122.869919 992.663879,122.934357 1024.557617,124.932045 
	C1025.000000,136.020889 1025.000000,147.041794 1025.000000,158.531342 
	C1009.028931,158.453293 993.059265,157.492081 977.086487,157.435455 
	C923.288696,157.244690 870.001038,161.785355 817.685425,175.203796 
	C756.361633,190.932709 700.867432,217.882080 653.106689,259.907135 
	C612.357117,295.762939 582.354309,339.204651 561.253845,389.090942 
	C543.778931,430.405731 532.901672,473.622589 523.210327,517.215393 
	C513.478149,560.991821 502.470764,604.355591 483.655731,645.341003 
	C468.263733,678.869934 448.589050,709.660828 424.785614,737.780334 
	C385.395355,784.312744 338.167542,821.006287 283.645630,848.119507 
	C234.002472,872.806458 181.347672,887.884399 126.469002,895.354553 
	C91.435165,900.123413 56.252739,902.576233 20.884424,901.955444 
	C14.559147,901.844482 8.239740,901.398926 1.458812,901.053955 
	C1.000000,889.979126 1.000000,878.958191 1.000000,867.468628 
z"/>
</svg>
